<svg xmlns="http://www.w3.org/2000/svg" xmlns:svg="http://www.w3.org/2000/svg" id="svg8" width="300mm" height="150mm" version="1.1" viewBox="0 0 300 150"><defs id="defs2"><marker style="overflow:visible" id="marker6003" orient="auto" refX="0" refY="0"><path style="fill:#f60;fill-opacity:1;fill-rule:evenodd;stroke:#f60;stroke-width:1.00000003pt;stroke-opacity:1" id="path6001" d="M 5.77,0 -2.88,5 V -5 Z" transform="scale(-0.8)"/></marker><marker style="overflow:visible" id="marker5843" orient="auto" refX="0" refY="0"><path style="fill:#f60;fill-opacity:1;fill-rule:evenodd;stroke:#f60;stroke-width:1.00000003pt;stroke-opacity:1" id="path5841" d="M 5.77,0 -2.88,5 V -5 Z" transform="scale(0.8)"/></marker><marker id="marker5701" orient="auto" refX="0" refY="0" style="overflow:visible"><path id="path5699" d="M 5.77,0 -2.88,5 V -5 Z" transform="scale(0.8)" style="fill:#f60;fill-opacity:1;fill-rule:evenodd;stroke:#f60;stroke-width:1.00000003pt;stroke-opacity:1"/></marker><marker style="overflow:visible" id="marker5223" orient="auto" refX="0" refY="0"><path style="fill:#f60;fill-opacity:1;fill-rule:evenodd;stroke:#f60;stroke-width:1.00000003pt;stroke-opacity:1" id="path5221" d="M 5.77,0 -2.88,5 V -5 Z" transform="scale(0.8)"/></marker><marker style="overflow:visible" id="marker5105" orient="auto" refX="0" refY="0"><path style="fill:#f60;fill-opacity:1;fill-rule:evenodd;stroke:#f60;stroke-width:1.00000003pt;stroke-opacity:1" id="path5103" d="M 5.77,0 -2.88,5 V -5 Z" transform="scale(-0.8)"/></marker><marker style="overflow:visible" id="marker4210" orient="auto" refX="0" refY="0"><path style="fill:#222d32;fill-opacity:1;fill-rule:evenodd;stroke:#222d32;stroke-width:1.00000003pt;stroke-opacity:1" id="path4208" d="M 5.77,0 -2.88,5 V -5 Z" transform="scale(0.8)"/></marker><marker style="overflow:visible" id="marker4086" orient="auto" refX="0" refY="0"><path style="fill:#222d32;fill-opacity:1;fill-rule:evenodd;stroke:#222d32;stroke-width:1.00000003pt;stroke-opacity:1" id="path4084" d="M 5.77,0 -2.88,5 V -5 Z" transform="scale(-0.8)"/></marker><marker id="marker2946" orient="auto" refX="0" refY="0" style="overflow:visible"><path id="path2944" d="M 5.77,0 -2.88,5 V -5 Z" transform="scale(0.8)" style="fill:#222d32;fill-opacity:1;fill-rule:evenodd;stroke:#222d32;stroke-width:1.00000003pt;stroke-opacity:1"/></marker><marker id="marker2834" orient="auto" refX="0" refY="0" style="overflow:visible"><path id="path2832" d="M 5.77,0 -2.88,5 V -5 Z" transform="scale(-0.8)" style="fill:#222d32;fill-opacity:1;fill-rule:evenodd;stroke:#222d32;stroke-width:1.00000003pt;stroke-opacity:1"/></marker><marker style="overflow:visible" id="marker2516" orient="auto" refX="0" refY="0"><path style="fill:#222d32;fill-opacity:1;fill-rule:evenodd;stroke:#222d32;stroke-width:1.00000003pt;stroke-opacity:1" id="path2514" d="M 5.77,0 -2.88,5 V -5 Z" transform="scale(0.8)"/></marker><marker style="overflow:visible" id="marker2971" orient="auto" refX="0" refY="0"><path style="fill:#ccc;fill-opacity:1;fill-rule:evenodd;stroke:#ccc;stroke-width:1.00000003pt;stroke-opacity:1" id="path2969" d="M 5.77,0 -2.88,5 V -5 Z" transform="scale(0.8)"/></marker><marker style="overflow:visible" id="TriangleInL" orient="auto" refX="0" refY="0"><path style="fill:#222d32;fill-opacity:1;fill-rule:evenodd;stroke:#222d32;stroke-width:1.00000003pt;stroke-opacity:1" id="path2698" d="M 5.77,0 -2.88,5 V -5 Z" transform="scale(-0.8)"/></marker><marker style="overflow:visible" id="TriangleOutL" orient="auto" refX="0" refY="0"><path style="fill:#ccc;fill-opacity:1;fill-rule:evenodd;stroke:#ccc;stroke-width:1.00000003pt;stroke-opacity:1" id="path2707" d="M 5.77,0 -2.88,5 V -5 Z" transform="scale(0.8)"/></marker><marker style="overflow:visible" id="marker2971-0" orient="auto" refX="0" refY="0"><path style="fill:#ccc;fill-opacity:1;fill-rule:evenodd;stroke:#ccc;stroke-width:1.00000003pt;stroke-opacity:1" id="path2969-5" d="M 5.77,0 -2.88,5 V -5 Z" transform="scale(0.8)"/></marker><marker style="overflow:visible" id="TriangleInL-2" orient="auto" refX="0" refY="0"><path style="fill:#000;fill-opacity:1;fill-rule:evenodd;stroke:#000;stroke-width:1.00000003pt;stroke-opacity:1" id="path2698-2" d="M 5.77,0 -2.88,5 V -5 Z" transform="scale(-0.8)"/></marker><marker style="overflow:visible" id="TriangleOutL-7" orient="auto" refX="0" refY="0"><path style="fill:#ccc;fill-opacity:1;fill-rule:evenodd;stroke:#ccc;stroke-width:1.00000003pt;stroke-opacity:1" id="path2707-3" d="M 5.77,0 -2.88,5 V -5 Z" transform="scale(0.8)"/></marker><marker style="overflow:visible" id="marker2971-1" orient="auto" refX="0" refY="0"><path style="fill:#ccc;fill-opacity:1;fill-rule:evenodd;stroke:#ccc;stroke-width:1.00000003pt;stroke-opacity:1" id="path2969-7" d="M 5.77,0 -2.88,5 V -5 Z" transform="scale(0.8)"/></marker><marker style="overflow:visible" id="TriangleInL-23" orient="auto" refX="0" refY="0"><path style="fill:#000;fill-opacity:1;fill-rule:evenodd;stroke:#000;stroke-width:1.00000003pt;stroke-opacity:1" id="path2698-6" d="M 5.77,0 -2.88,5 V -5 Z" transform="scale(-0.8)"/></marker><marker style="overflow:visible" id="TriangleOutL-5" orient="auto" refX="0" refY="0"><path style="fill:#ccc;fill-opacity:1;fill-rule:evenodd;stroke:#ccc;stroke-width:1.00000003pt;stroke-opacity:1" id="path2707-5" d="M 5.77,0 -2.88,5 V -5 Z" transform="scale(0.8)"/></marker><marker style="overflow:visible" id="marker2971-4" orient="auto" refX="0" refY="0"><path style="fill:#ccc;fill-opacity:1;fill-rule:evenodd;stroke:#ccc;stroke-width:1.00000003pt;stroke-opacity:1" id="path2969-6" d="M 5.77,0 -2.88,5 V -5 Z" transform="scale(0.8)"/></marker><marker style="overflow:visible" id="TriangleInL-0" orient="auto" refX="0" refY="0"><path style="fill:#000;fill-opacity:1;fill-rule:evenodd;stroke:#000;stroke-width:1.00000003pt;stroke-opacity:1" id="path2698-3" d="M 5.77,0 -2.88,5 V -5 Z" transform="scale(-0.8)"/></marker><marker style="overflow:visible" id="TriangleOutL-2" orient="auto" refX="0" refY="0"><path style="fill:#ccc;fill-opacity:1;fill-rule:evenodd;stroke:#ccc;stroke-width:1.00000003pt;stroke-opacity:1" id="path2707-6" d="M 5.77,0 -2.88,5 V -5 Z" transform="scale(0.8)"/></marker></defs><metadata id="metadata5"/><g id="layer1"><g id="g6670" transform="translate(-3.4953699,-4.2630205)"><rect id="rect1490" width="58.054" height="46.803" x="19.363" y="68.769" ry="3.719" style="fill:none;fill-opacity:1;stroke:#222d32;stroke-width:.77500117;stroke-linecap:round;stroke-miterlimit:4;stroke-dasharray:none;stroke-dashoffset:0;stroke-opacity:1"/><g style="fill:none;fill-rule:evenodd;stroke:none;stroke-width:1" id="icon-elasticsearch-bb" transform="matrix(0.48081261,0,0,0.48081261,30.480122,72.937711)"><g id="Group-2" transform="translate(15,15)"><path style="fill:#343741" id="Fill-1-4" d="m 0,25 c 0,2.1625 0.303125,4.25 0.81875,6.25 H 31.25 c 3.451563,0 6.25,-2.798437 6.25,-6.25 0,-3.451563 -2.798437,-6.25 -6.25,-6.25 H 0.81875 C 0.303125,20.75 0,22.8375 0,25"/><path style="fill:#fec514" id="Fill-3" d="m 42.068438,11.972031 c 0.873437,-0.80625 1.685937,-1.670312 2.431249,-2.5968747 -4.582812,-5.709375 -11.609375,-9.37500005 -19.5,-9.37500005 -9.876562,0 -18.376562,5.74687495 -22.4312495,14.06249975 H 36.735625 c 1.978125,0 3.879688,-0.751562 5.332813,-2.090625"/><path style="fill:#00bfb3" id="Fill-6" d="M 36.735469,35.9375 H 2.5682813 C 6.6245313,44.254688 15.122969,50 24.999531,50 c 7.890625,0 14.917188,-3.665625 19.5,-9.375 -0.745312,-0.926563 -1.557812,-1.790625 -2.43125,-2.596875 C 40.615156,36.6875 38.713594,35.9375 36.735469,35.9375"/></g></g><g id="g1521" transform="matrix(1.0333349,0,0,1.0333349,-171.30866,-12.96911)"><rect id="rect1513" width="56.181" height="27.6" x="184.521" y="28.495" ry="2.193" style="fill:none;fill-opacity:1;stroke:#222d32;stroke-width:.75;stroke-linecap:round;stroke-miterlimit:4;stroke-dasharray:none;stroke-dashoffset:0;stroke-opacity:1"/><g id="icon-kibana-bb" transform="matrix(0.46530182,0,0,0.46530182,194.20309,19.417774)" style="fill:none;fill-rule:evenodd;stroke:none;stroke-width:1"><g id="Group-8" transform="translate(20,15)"><polygon id="Fill-1-8" points="0 44.982 40 .001 0 .001" transform="matrix(0.59243767,0,0,0.59243767,0,18.333037)" style="fill:#f04e98"/><path id="Fill-2-3" d="m 0,18.333333 v 26.648334 l 19.278333,-21.68 C 13.56,20.146667 6.995,18.333333 0,18.333333" style="fill:#343741"/><path id="Fill-4-9" d="M 23.541667,26.031833 3.7366667,48.305167 2.23,50.000167 h 36.895 c -2.078333,-9.805 -7.766667,-18.258334 -15.583333,-23.968334" style="fill:#00bfb3"/></g></g></g><g id="g1549" transform="matrix(1.0333349,0,0,1.0333349,-171.50395,-11.563038)"><rect style="fill:none;fill-opacity:1;stroke:#f60;stroke-width:.75;stroke-linecap:round;stroke-miterlimit:4;stroke-dasharray:none;stroke-dashoffset:0;stroke-opacity:1" id="rect1494" width="58.612" height="45.499" x="318.265" y="77.638" ry="3.616"/><text style="font-style:normal;font-weight:400;font-size:7.76111126px;line-height:1.25;font-family:sans-serif;letter-spacing:0;word-spacing:0;fill:#f60;fill-opacity:1;stroke:none;stroke-width:.26458332" id="text1506" x="328.015" y="105.01" xml:space="preserve"><tspan id="tspan1504" x="328.015" y="105.01" style="font-style:normal;font-variant:normal;font-weight:700;font-stretch:normal;font-size:12.69999981px;font-family:sans-serif;-inkscape-font-specification:'sans-serif Bold';stroke-width:.26458332">CDAP</tspan></text></g><rect style="fill:#1bacab;fill-opacity:.15;stroke:#1bacab;stroke-width:.77500117;stroke-linecap:round;stroke-miterlimit:4;stroke-dasharray:none;stroke-dashoffset:0;stroke-opacity:1" id="rect1492" width="35.613" height="47.015" x="99.911" y="68.663" ry="3.736"/><text id="text1533" x="117.422" y="89.37" xml:space="preserve" style="font-style:normal;font-weight:400;font-size:5.83260155px;line-height:1.25;font-family:Verdana;letter-spacing:0;word-spacing:0;fill:#1bacab;fill-opacity:1;stroke:none;stroke-width:.27340317"><tspan style="font-size:8.01982689px;text-align:center;text-anchor:middle;stroke-width:.27340317" id="tspan1531" x="118.832" y="89.37">Elastic </tspan><tspan id="tspan1535" x="117.422" y="99.395" style="font-size:8.01982689px;text-align:center;text-anchor:middle;stroke-width:.27340317">Insight</tspan></text><path style="fill:none;stroke:#222d32;stroke-width:.51666743;stroke-linecap:butt;stroke-linejoin:miter;stroke-miterlimit:4;stroke-dasharray:none;stroke-opacity:1;marker-start:url(#TriangleInL);marker-end:url(#marker2516)" id="path2512" d="m 80.608774,92.170251 h 16.213"/><path id="path2830" d="m 138.41402,92.170251 h 16.213" style="fill:none;stroke:#222d32;stroke-width:.51666743;stroke-linecap:butt;stroke-linejoin:miter;stroke-miterlimit:4;stroke-dasharray:none;stroke-opacity:1;marker-start:url(#marker2834);marker-end:url(#marker2946)"/><path style="fill:none;stroke:#f60;stroke-width:.5;stroke-linecap:butt;stroke-linejoin:miter;stroke-miterlimit:4;stroke-dasharray:1.76572893,.58857631;stroke-dashoffset:0;stroke-opacity:1;marker-end:url(#marker5223)" id="path5101" d="M 267.09492,76.655418 V 97.668406"/><path style="fill:none;stroke:#222d32;stroke-width:.51666743;stroke-linecap:butt;stroke-linejoin:miter;stroke-miterlimit:4;stroke-dasharray:none;stroke-opacity:1;marker-start:url(#marker4086);marker-end:url(#marker4210)" id="path4082" d="M 48.390324,64.890572 V 48.677578"/><text id="text4688" x="187.452" y="53.035" xml:space="preserve" style="font-style:normal;font-weight:400;font-size:5.83260155px;line-height:1.25;font-family:sans-serif;letter-spacing:0;word-spacing:0;fill:#000;fill-opacity:1;stroke:none;stroke-width:.27340317"><tspan id="tspan4690" x="187.452" y="53.035" style="font-size:7.29075146px;text-align:center;text-anchor:middle;stroke-width:.27340317">Customer</tspan><tspan id="tspan5038" x="187.452" y="62.148" style="font-size:7.29075146px;text-align:center;text-anchor:middle;stroke-width:.27340317">Science</tspan></text><g id="layer1-02" transform="matrix(0.13038867,0,0,0.13038867,104.80517,54.501556)"><circle id="circle50" cx="99.03" cy="101.046" r="88.752" style="fill:none;fill-opacity:1;stroke:#1bacab;stroke-width:7.65679359;stroke-linecap:round;stroke-miterlimit:4;stroke-dasharray:5.10452907,1.27613226;stroke-dashoffset:0;stroke-opacity:1"/><g id="g59" transform="matrix(0.72850162,0,0,0.72850162,25.509643,27.433779)"><circle id="path10" cx="100.92" cy="101.046" r="88.752" style="fill:#1bacab;fill-opacity:1;stroke:#1bacab;stroke-width:7.65679359;stroke-linecap:round;stroke-miterlimit:4;stroke-dasharray:5.10452907,1.27613226;stroke-dashoffset:0;stroke-opacity:1"/><g id="g48" transform="translate(1.9515173,4.8003006)"><rect style="fill:#efefef;fill-opacity:1;stroke-width:.60111272" id="rect31" width="70.332" height="66.146" x="23.435" y="63.173" ry="9.529"/><g id="g41" transform="translate(-5.8208336)"><rect style="fill:#efefef;fill-opacity:1;stroke-width:.60111272" id="rect33" width="70.332" height="66.146" x="109.991" y="63.173" ry="9.529"/><circle style="fill:#1bacab;fill-opacity:1;stroke:#1bacab;stroke-width:1.57667387;stroke-linecap:round;stroke-miterlimit:4;stroke-dasharray:1.05111587,.26277897;stroke-dashoffset:0;stroke-opacity:1" id="circle35" cx="111.314" cy="96.246" r="18.276"/></g><circle style="fill:#efefef;fill-opacity:1;stroke:#1bacab;stroke-width:1.40474248;stroke-linecap:round;stroke-miterlimit:4;stroke-dasharray:.93649493,.23412374;stroke-dashoffset:0;stroke-opacity:0" id="circle37" cx="93.663" cy="96.246" r="16.283"/></g></g></g><g id="g5063"><g id="g5032" transform="matrix(0.56481719,0,0,0.56481719,161.65542,127.91455)"><path id="path5003" d="m 202.1738,-140.99253 c -0.0265,-0.23812 -0.23813,-0.34396 -0.39688,-0.34396 -0.15875,0 -3.62479,-0.26458 -3.62479,-0.26458 0,0 -2.40771,-2.40771 -2.69875,-2.64583 -0.26458,-0.26459 -0.76729,-0.18521 -0.97896,-0.1323 -0.0265,0 -0.52916,0.15875 -1.34937,0.42334 -0.82021,-2.35479 -2.2225,-4.49792 -4.73604,-4.49792 h -0.23813 c -0.68792,-0.89958 -1.5875,-1.32292 -2.32833,-1.32292 -5.82084,0 -8.62542,7.27605 -9.49854,10.98021 -2.27542,0.71438 -3.88938,1.19063 -4.07459,1.27 -1.27,0.39688 -1.29646,0.42334 -1.45521,1.61396 -0.13229,0.89958 -3.43958,26.48479 -3.43958,26.48479 l 25.74396,4.81542 13.97,-3.01625 c 0.0265,-0.0529 -4.86833,-33.12583 -4.89479,-33.36396 z m -10.4775,-2.59292 c -0.635,0.18521 -1.40229,0.42334 -2.16959,0.68792 v -0.47625 c 0,-1.42875 -0.1852,-2.59292 -0.52916,-3.51896 1.32291,0.15875 2.14312,1.61396 2.69875,3.30729 z m -4.31271,-3.01625 c 0.34396,0.89959 0.58208,2.16959 0.58208,3.91584 v 0.26458 c -1.42875,0.44979 -2.93687,0.89958 -4.49791,1.40229 0.87312,-3.33375 2.54,-4.97416 3.91583,-5.58271 z m -1.69333,-1.64041 c 0.26458,0 0.52916,0.10583 0.74083,0.26458 -1.87854,0.87313 -3.86292,3.06917 -4.68313,7.51417 -1.24354,0.39687 -2.43416,0.74083 -3.57187,1.11125 0.9525,-3.38667 3.33375,-8.89 7.51417,-8.89 z" style="fill:#95bf47;stroke-width:.26458332"/><path id="path5005" d="m 201.77692,-141.3894 c -0.15875,0 -3.62479,-0.26459 -3.62479,-0.26459 0,0 -2.40771,-2.40771 -2.69875,-2.64583 -0.10583,-0.10583 -0.23812,-0.15875 -0.34396,-0.15875 l -1.93146,39.84625 13.97,-3.01625 c 0,0 -4.89479,-33.12583 -4.92125,-33.36396 -0.10583,-0.23812 -0.29104,-0.34396 -0.44979,-0.39687 z" style="fill:#5e8e3e;stroke-width:.26458332"/><path id="path5007" d="m 188.38901,-133.66357 -1.69334,5.10646 c 0,0 -1.53458,-0.82021 -3.36021,-0.82021 -2.7252,0 -2.8575,1.71979 -2.8575,2.14312 0,2.32834 6.08542,3.22792 6.08542,8.7048 0,4.3127 -2.72521,7.09083 -6.40292,7.09083 -4.445,0 -6.6675,-2.75167 -6.6675,-2.75167 l 1.19063,-3.91583 c 0,0 2.32833,2.01083 4.28625,2.01083 1.29646,0 1.82562,-1.00541 1.82562,-1.74625 0,-3.04271 -4.97416,-3.175 -4.97416,-8.20208 0,-4.20688 3.01625,-8.28146 9.12812,-8.28146 2.27542,-0.0265 3.43959,0.66146 3.43959,0.66146 z" style="fill:#fff;stroke-width:.26458332"/></g><path style="fill:none;fill-opacity:0;stroke:#f60;stroke-width:.75;stroke-linecap:round;stroke-miterlimit:4;stroke-dasharray:none;stroke-dashoffset:0;stroke-opacity:1" id="path5034" d="M 267.78025,35.854429 A 20.221727,20.221727 0 0 1 287.63806,56.344491 20.221727,20.221727 0 0 1 267.2371,76.293831 20.221727,20.221727 0 0 1 247.19663,55.982386 20.221727,20.221727 0 0 1 267.41815,35.851187"/></g><g id="g5071"><g style="fill:none;fill-rule:evenodd;stroke:none;stroke-width:1" id="g5056" transform="matrix(0.48081261,0,0,0.48081261,249.50797,102.60821)"><g id="g5054" transform="translate(15,15)"><path style="fill:#343741" id="path5048" d="m 0,25 c 0,2.1625 0.303125,4.25 0.81875,6.25 H 31.25 c 3.451563,0 6.25,-2.798437 6.25,-6.25 0,-3.451563 -2.798437,-6.25 -6.25,-6.25 H 0.81875 C 0.303125,20.75 0,22.8375 0,25"/><path style="fill:#fec514" id="path5050" d="m 42.068438,11.972031 c 0.873437,-0.80625 1.685937,-1.670312 2.431249,-2.5968747 -4.582812,-5.709375 -11.609375,-9.37500005 -19.5,-9.37500005 -9.876562,0 -18.376562,5.74687495 -22.4312495,14.06249975 H 36.735625 c 1.978125,0 3.879688,-0.751562 5.332813,-2.090625"/><path style="fill:#00bfb3" id="path5052" d="M 36.735469,35.9375 H 2.5682813 C 6.6245313,44.254688 15.122969,50 24.999531,50 c 7.890625,0 14.917188,-3.665625 19.5,-9.375 -0.745312,-0.926563 -1.557812,-1.790625 -2.43125,-2.596875 C 40.615156,36.6875 38.713594,35.9375 36.735469,35.9375"/></g></g><path id="path5040" d="m 267.78025,101.62228 a 20.221727,20.221727 0 0 1 19.85781,20.49006 20.221727,20.221727 0 0 1 -20.40096,19.94934 20.221727,20.221727 0 0 1 -20.04047,-20.31144 20.221727,20.221727 0 0 1 20.22152,-20.1312" style="fill:none;fill-opacity:0;stroke:#f60;stroke-width:.75;stroke-linecap:round;stroke-miterlimit:4;stroke-dasharray:none;stroke-dashoffset:0;stroke-opacity:1"/></g><path id="path5073" d="M 221.5243,76.157147 249.1199,63.501045" style="fill:none;stroke:#f60;stroke-width:.5;stroke-linecap:butt;stroke-linejoin:miter;stroke-opacity:1;marker-start:url(#marker6003)"/><path id="path5075" d="m 218.56405,103.62189 26.69996,10.32734" style="fill:none;stroke:#f60;stroke-width:.5;stroke-linecap:butt;stroke-linejoin:miter;stroke-opacity:1;marker-end:url(#marker5701)"/></g></g></svg>